<mxfile host="app.diagrams.net" modified="2024-06-03T19:40:21.709Z" agent="Mozilla/5.0 (Macintosh; Intel Mac OS X 10_15_7) AppleWebKit/605.1.15 (KHTML, like Gecko) Version/17.5 Safari/605.1.15" version="24.4.13" etag="w299T5brmd96siW03Ywx" type="github">
  <diagram name="Page-1" id="CVUkwAInf6pXaZrzfEQA">
    <mxGraphModel>
      <root>
        <mxCell id="0" />
        <mxCell id="1" parent="0" />
      </root>
    </mxGraphModel>
  </diagram>
</mxfile>
